<?xml version="1.0" encoding="UTF-8"?>
<svg version="1.1" xmlns="http://www.w3.org/2000/svg" width="249" height="186">
<path d="M0 0 C82.17 0 164.34 0 249 0 C249 61.38 249 122.76 249 186 C166.83 186 84.66 186 0 186 C0 124.62 0 63.24 0 0 Z " fill="#5153F0" transform="translate(0,0)"/>
<path d="M0 0 C7.13272534 5.88485292 11.24477641 12.759611 12.3828125 22.0234375 C12.70837367 30.12727088 11.41771918 35.85116976 6.96484375 42.62109375 C6.09859375 43.98234375 6.09859375 43.98234375 5.21484375 45.37109375 C-3.06318752 53.64912502 -14.47833255 58.70219991 -26.16015625 58.87109375 C-37.20749633 58.74765978 -46.81015641 55.2628718 -55.078125 47.76953125 C-61.61188594 40.77603873 -65.52137421 32.1195504 -65.3671875 22.50390625 C-64.338129 13.56925712 -60.04013681 6.51513227 -53.48828125 0.52734375 C-37.78257502 -11.67709039 -16.00783852 -11.60785397 0 0 Z " fill="#F3F2F4" transform="translate(144.03515625,37.37890625)"/>
<path d="M0 0 C3.34250232 2.69030674 3.89588856 4.34062756 4.5625 8.5625 C4 12 4 12 1.81347656 14.02099609 C-0.9155327 15.94058557 -3.62618973 17.54987867 -6.578125 19.1015625 C-8.19847656 19.96201172 -8.19847656 19.96201172 -9.8515625 20.83984375 C-10.97304687 21.42894531 -12.09453125 22.01804687 -13.25 22.625 C-15.4446316 23.78020776 -17.63730632 24.93913988 -19.828125 26.1015625 C-20.92715652 26.67424866 -22.02618805 27.24693481 -23.15852356 27.8369751 C-25.76648544 29.24791665 -28.15903774 30.78648455 -30.55326843 32.53387451 C-42.87686304 41.22560405 -53.92725415 41.32712654 -68.62890625 40.9765625 C-70.95870398 40.95786685 -73.28854153 40.94365328 -75.61839294 40.9336853 C-81.69383989 40.89585208 -87.76682259 40.79793288 -93.84130859 40.68664551 C-100.06248657 40.58358505 -106.2840703 40.53851488 -112.50585938 40.48828125 C-124.67181926 40.3816496 -136.83531739 40.20604674 -149 40 C-149 29.44 -149 18.88 -149 8 C-146.03 7.34 -143.06 6.68 -140 6 C-138.24191706 5.48140263 -136.48719549 4.95106757 -134.73828125 4.40234375 C-128.53592355 2.69175789 -122.59342536 2.50540956 -116.1875 2.5625 C-115.03241943 2.56644775 -113.87733887 2.57039551 -112.68725586 2.57446289 C-105.55863323 2.69465625 -99.69943934 3.62543961 -92.9765625 6.05078125 C-86.08080755 8.07524057 -78.4489021 7.57965636 -71.32641602 7.67163086 C-70.19647217 7.6897583 -69.06652832 7.70788574 -67.90234375 7.7265625 C-66.88648193 7.73252441 -65.87062012 7.73848633 -64.82397461 7.74462891 C-61.80819756 8.01734463 -59.68452661 8.60733464 -57 10 C-55 13 -55 13 -55.1875 16.5 C-55.9715916 19.87762534 -56.26824979 21.03313985 -59 23 C-62.33155251 24.66577625 -66.06536059 24.12007856 -69.7265625 24.09765625 C-71.02078629 24.09553383 -71.02078629 24.09553383 -72.34115601 24.09336853 C-75.1024723 24.08776188 -77.86370812 24.07520827 -80.625 24.0625 C-82.4947905 24.05748586 -84.36458226 24.0529228 -86.234375 24.04882812 C-90.82294777 24.03779029 -95.41146023 24.0205212 -100 24 C-100 25.98 -100 27.96 -100 30 C-95.19808071 29.93052379 -90.39698316 29.84227794 -85.59570312 29.73754883 C-83.96656508 29.70454751 -82.33731949 29.67644065 -80.70800781 29.65356445 C-64.12036357 29.72058129 -64.12036357 29.72058129 -50.20703125 21.73925781 C-44.83236515 17.50373554 -38.14154399 14.8441908 -32 11.875 C-29.83523077 10.81777587 -27.67192964 9.75763167 -25.50952148 8.69558716 C-24.1721614 8.03988756 -22.83323539 7.38736776 -21.49243164 6.73873901 C-18.32315159 5.19570484 -15.23699973 3.58307188 -12.19213867 1.80541992 C-7.96862323 -0.58332935 -4.72346475 -1.03952699 0 0 Z " fill="#F4F3F4" transform="translate(202,104)"/>
<path d="M0 0 C5.94 0 11.88 0 18 0 C18 15.51 18 31.02 18 47 C12.06 47 6.12 47 0 47 C0 31.49 0 15.98 0 0 Z " fill="#F5F4F4" transform="translate(29,102)"/>
<path d="M0 0 C9.9 0 19.8 0 30 0 C30 1.65 30 3.3 30 5 C28.41727399 6.58272601 26.61965997 6.34735747 24.4375 6.5625 C23.61121094 6.64628906 22.78492187 6.73007812 21.93359375 6.81640625 C20.97646484 6.90728516 20.97646484 6.90728516 20 7 C20.33 8.32 20.66 9.64 21 11 C23.64 11 26.28 11 29 11 C29 12.65 29 14.3 29 16 C26.36 16 23.72 16 21 16 C20.690625 17.11375 20.690625 17.11375 20.375 18.25 C18.5787993 21.8424014 16.47882691 23.08309537 13 25 C12.01 25 11.02 25 10 25 C10 25.66 10 26.32 10 27 C10.56203125 27.24492188 11.1240625 27.48984375 11.703125 27.7421875 C14.41865854 29.22926539 16.46391438 31.04062782 18.75 33.125 C19.54921875 33.84945312 20.3484375 34.57390625 21.171875 35.3203125 C22.07679687 36.15175781 22.07679687 36.15175781 23 37 C22.34 38.32 21.68 39.64 21 41 C16.75812852 40.49217032 14.62951572 38.06156755 11.625 35.1875 C8.70444821 32.40269217 6.1164848 30.06991803 2.6484375 27.98828125 C1.77445312 27.33214844 0.90046875 26.67601563 0 26 C-0.375 23.25 -0.375 23.25 0 21 C0.67546875 20.95101562 1.3509375 20.90203125 2.046875 20.8515625 C2.93890625 20.77679688 3.8309375 20.70203125 4.75 20.625 C5.63171875 20.55539063 6.5134375 20.48578125 7.421875 20.4140625 C10.02386288 19.99616748 11.77433233 19.39354867 14 18 C14.33 17.34 14.66 16.68 15 16 C10.05 16 5.1 16 0 16 C0 14.35 0 12.7 0 11 C4.95 11 9.9 11 15 11 C10.72088878 6.6879388 10.72088878 6.6879388 5.25 6.25 C3.77273437 6.16492187 3.77273437 6.16492187 2.265625 6.078125 C1.51796875 6.05234375 0.7703125 6.0265625 0 6 C0 4.02 0 2.04 0 0 Z " fill="#5B5DF0" transform="translate(103,44)"/>
</svg>
